<?xml version="1.0" standalone="no"?>
<!DOCTYPE svg PUBLIC "-//W3C//DTD SVG 20010904//EN"
 "http://www.w3.org/TR/2001/REC-SVG-20010904/DTD/svg10.dtd">
<svg version="1.0" xmlns="http://www.w3.org/2000/svg"
 width="1523.000000pt" height="237.000000pt" viewBox="0 0 1523.000000 237.000000"
 preserveAspectRatio="xMidYMid meet">

<g transform="translate(0.000000,237.000000) scale(0.100000,-0.100000)"
fill="#000000" stroke="none">
<path d="M4635 1714 c-614 -7 -1779 -25 -2195 -34 -926 -20 -1440 -32 -1616
-39 l-181 -6 -85 -43 c-148 -73 -241 -188 -268 -331 -47 -251 85 -480 301
-521 113 -22 240 42 293 147 72 143 -29 303 -182 291 -70 -6 -105 -40 -100
-97 3 -31 6 -36 28 -36 17 0 26 6 28 20 7 33 22 45 59 45 111 0 160 -126 85
-219 -84 -104 -209 -115 -324 -28 -117 90 -161 293 -98 460 30 80 115 166 206
209 87 41 107 42 1084 63 2079 44 3414 60 4375 51 1171 -9 1517 -31 1657 -102
26 -13 48 -26 48 -28 0 -1 -24 -39 -53 -82 -79 -118 -102 -199 -102 -354 0
-110 3 -131 24 -177 29 -66 97 -129 146 -139 162 -30 279 112 279 341 0 139
-40 250 -129 359 l-45 55 67 32 c53 25 85 33 167 40 244 20 1889 30 3191 20
1467 -12 2778 -29 3080 -39 l201 -7 69 -34 c78 -39 162 -116 193 -177 44 -87
54 -234 23 -336 -30 -98 -124 -186 -224 -208 -77 -18 -130 -1 -189 60 -73 75
-77 152 -12 210 48 42 85 40 121 -5 48 -60 103 -36 66 28 -41 70 -120 94 -190
59 -214 -110 -92 -427 164 -425 171 1 317 148 346 349 32 221 -66 405 -270
506 l-86 43 -276 7 c-1189 30 -5012 49 -5822 29 -487 -12 -501 -14 -615 -76
l-61 -33 -79 39 c-121 61 -265 79 -774 99 -245 10 -1853 20 -2325 14z m3265
-345 c135 -210 81 -539 -88 -539 -80 0 -133 63 -152 183 -22 141 35 328 133
435 l21 22 28 -27 c16 -15 42 -48 58 -74z"/>
</g>
</svg>
